<?xml version="1.0" encoding="UTF-8" standalone="no"?>
<!-- Created with Inkscape (http://www.inkscape.org/) -->

<svg
   xmlns:dc="http://purl.org/dc/elements/1.1/"
   xmlns:cc="http://creativecommons.org/ns#"
   xmlns:rdf="http://www.w3.org/1999/02/22-rdf-syntax-ns#"
   xmlns:svg="http://www.w3.org/2000/svg"
   xmlns="http://www.w3.org/2000/svg"
   xmlns:sodipodi="http://sodipodi.sourceforge.net/DTD/sodipodi-0.dtd"
   xmlns:inkscape="http://www.inkscape.org/namespaces/inkscape"
   width="200"
   height="200"
   viewBox="0 0 52.916666 52.916666"
   version="1.1"
   id="svg8"
   inkscape:version="0.92.2 (5c3e80d, 2017-08-06)"
   sodipodi:docname="icon.svg"
   inkscape:export-filename="/home/remipassmoilesel/projects/personnal-website/src/assets/img/icon-small.png"
   inkscape:export-xdpi="29.76"
   inkscape:export-ydpi="29.76">
  <defs
     id="defs2" />
  <sodipodi:namedview
     id="base"
     pagecolor="#ffffff"
     bordercolor="#666666"
     borderopacity="1.0"
     inkscape:pageopacity="0.0"
     inkscape:pageshadow="2"
     inkscape:zoom="2.6687159"
     inkscape:cx="66.768588"
     inkscape:cy="107.26974"
     inkscape:document-units="mm"
     inkscape:current-layer="layer1"
     showgrid="false"
     units="px"
     inkscape:window-width="1853"
     inkscape:window-height="1025"
     inkscape:window-x="67"
     inkscape:window-y="27"
     inkscape:window-maximized="1" />
  <metadata
     id="metadata5">
    <rdf:RDF>
      <cc:Work
         rdf:about="">
        <dc:format>image/svg+xml</dc:format>
        <dc:type
           rdf:resource="http://purl.org/dc/dcmitype/StillImage" />
        <dc:title></dc:title>
      </cc:Work>
    </rdf:RDF>
  </metadata>
  <g
     inkscape:label="Calque 1"
     inkscape:groupmode="layer"
     id="layer1"
     transform="translate(0,-244.08333)">
    <rect
       style="fill:#ffffff;fill-opacity:1;stroke:none;stroke-width:2.12849998;stroke-miterlimit:4;stroke-dasharray:none;stroke-opacity:1"
       id="rect942"
       width="47.625"
       height="47.625"
       x="2.6458333"
       y="246.72916"
       inkscape:export-xdpi="96"
       inkscape:export-ydpi="96" />
    <g
       id="g880"
       transform="matrix(0.76871421,0,0,0.76871421,-13.593347,149.63722)">
      <path
         style="fill:#d8d8d8;fill-opacity:1;stroke-width:0.26458332"
         d="m 19.623157,190.62577 c -0.329538,-0.1333 -0.717894,-0.55465 -0.863012,-0.93634 -0.171555,-0.45123 -0.239624,-11.92694 -0.194589,-32.80602 0.06562,-30.4222 0.09413,-32.1369 0.541732,-32.58447 0.448434,-0.44841 2.127159,-0.47244 32.99732,-0.47244 30.871079,0 32.548873,0.024 32.997321,0.47247 0.448445,0.44845 0.472469,2.12624 0.472469,32.99732 0,30.87017 -0.02402,32.54889 -0.472435,32.99732 -0.447796,0.44783 -2.15206,0.47513 -32.67604,0.52349 -19.018352,0.0301 -32.448922,-0.0482 -32.802766,-0.19133 z m 44.123117,-5.13413 c 0,-0.59128 -0.528299,-1.83618 -0.876448,-2.06529 -0.172797,-0.11372 -1.12345,-0.18723 -2.112563,-0.16336 -0.989113,0.0239 -1.915673,-0.0739 -2.059022,-0.21723 -0.151595,-0.1516 -0.229404,-1.63516 -0.185989,-3.5462 l 0.07465,-3.28556 2.158976,-0.0765 c 1.29544,-0.0459 2.256116,-0.20462 2.401838,-0.39688 0.133572,-0.17622 0.456221,-0.89753 0.716999,-1.6029 l 0.474141,-1.2825 -1.354624,-1.37166 c -0.74504,-0.75441 -1.354621,-1.60355 -1.354621,-1.88698 0,-0.57796 4.15032,-4.892 4.706349,-4.892 0.193826,0 0.981864,0.59532 1.751198,1.32292 0.769334,0.7276 1.58051,1.32292 1.802614,1.32292 0.222102,0 0.954738,-0.2437 1.628079,-0.54155 l 1.224259,-0.54155 v -1.95309 c 0,-2.69327 0.118398,-2.78465 3.608168,-2.78465 3.744351,0 3.800165,0.0388 3.800165,2.63953 0,1.15046 0.119062,2.16533 0.264583,2.25527 0.175123,0.10823 0.264584,-4.59847 0.264584,-13.92033 0,-12.73387 -0.04197,-14.13022 -0.437883,-14.5677 -0.418891,-0.46287 -1.637131,-0.48385 -28.091145,-0.48385 -25.360355,0 -27.69338,0.0363 -28.137115,0.43788 -0.461769,0.4179 -0.483855,1.50086 -0.483855,23.72552 0,21.2981 0.03741,23.32898 0.437883,23.7715 0.416732,0.46048 1.387938,0.48385 20.108332,0.48385 16.911822,0 19.67045,-0.0532 19.67045,-0.37965 z M 47.233335,162.03849 c -0.376737,-0.44773 -0.684977,-1.03179 -0.684977,-1.29791 0,-0.26612 1.321718,-4.15629 2.937156,-8.64481 1.615434,-4.48851 3.115394,-8.66838 3.333244,-9.28859 0.477877,-1.3605 1.197078,-1.91506 2.483641,-1.91506 1.20383,0 2.358459,1.04483 2.358459,2.13419 0,0.40651 -1.437566,4.76582 -3.194593,9.68736 -3.489928,9.7755 -3.688042,10.13887 -5.527891,10.13887 -0.814242,0 -1.158267,-0.16425 -1.705039,-0.81405 z m -8.641388,-3.60184 c -2.549165,-2.24132 -5.489526,-5.44628 -5.619259,-6.12494 -0.227986,-1.19263 0.438145,-2.18417 3.450235,-5.13573 2.75809,-2.70266 2.957865,-2.84427 4.012505,-2.84427 1.465614,0 2.408764,0.88691 2.408764,2.26513 0,0.83803 -0.245795,1.21975 -1.852083,2.87633 -1.018646,1.05053 -1.852084,2.07062 -1.852084,2.26687 0,0.19625 0.833438,1.21634 1.852084,2.26687 1.586711,1.63638 1.852083,2.04468 1.852083,2.84955 0,1.23045 -0.896313,2.26296 -2.135578,2.46009 -0.825479,0.13131 -1.093098,0.0201 -2.116667,-0.8799 z m 24.19045,0.72396 c -0.827955,-0.34874 -1.417373,-1.32527 -1.417373,-2.34827 0,-0.75025 0.300175,-1.20494 1.852083,-2.80543 1.018646,-1.05053 1.852084,-2.07062 1.852084,-2.26687 0,-0.19625 -0.833438,-1.21634 -1.852084,-2.26687 -1.502436,-1.54947 -1.852083,-2.06852 -1.852083,-2.74941 0,-1.15661 0.424601,-1.84446 1.388832,-2.24989 1.372537,-0.57711 2.204472,-0.1111 5.29436,2.96565 2.821276,2.80929 3.406384,3.73143 3.165888,4.9895 -0.05853,0.3062 -1.494851,1.94075 -3.191814,3.63233 -3.173214,3.16316 -3.969724,3.63427 -5.239893,3.09926 z m 17.464211,26.22143 c 0.392393,-0.43359 0.434684,-1.20828 0.371734,-6.80962 l -0.07103,-6.32037 -0.79375,-0.39187 c -1.354161,-0.66854 -4.520829,-0.67804 -6.276176,-0.0188 -1.909127,0.71697 -3.724666,2.44805 -4.621109,4.40614 -0.599165,1.30874 -0.661519,1.72831 -0.559178,3.76246 0.11902,2.36563 0.443169,3.2987 1.737497,5.00144 l 0.653648,0.85989 h 4.5578 c 4.097827,0 4.602483,-0.0494 5.000564,-0.48925 z M 26.506172,130.78565 c 0.994516,-1.15016 0.174926,-2.9463 -1.344417,-2.9463 -2.183766,0 -2.638814,2.85649 -0.573812,3.60201 0.599568,0.21646 1.400962,-0.0575 1.918229,-0.65571 z m 8.214917,0.10068 c 0.707837,-0.62208 0.502474,-2.10755 -0.38229,-2.76526 -1.377297,-1.02383 -3.30299,0.45804 -2.726268,2.09794 0.473628,1.34676 1.969955,1.66798 3.108558,0.66732 z m 8.5276,-0.13955 c 1.229468,-1.75531 -0.923471,-3.86819 -2.598761,-2.55041 -1.197295,0.9418 -0.85819,2.7721 0.596778,3.2211 0.680773,0.21008 1.601005,-0.0982 2.001983,-0.67069 z"
         id="path852"
         inkscape:connector-curvature="0" />
      <path
         style="fill:#cacaca;fill-opacity:1;stroke-width:0.26458332"
         d="m 19.797527,190.6036 c -0.379156,-0.13915 -0.82564,-0.55208 -0.992188,-0.91761 -0.415822,-0.91263 -0.434239,-63.41914 -0.01904,-64.61019 0.189575,-0.54382 0.553999,-0.90824 1.097815,-1.09782 1.186605,-0.41365 63.69723,-0.39693 64.606328,0.0173 0.363405,0.16558 0.785728,0.6596 0.93849,1.09782 0.392401,1.12564 0.386588,63.29746 -0.006,64.4237 -0.189574,0.54382 -0.553998,0.90824 -1.097815,1.09782 -1.061238,0.36994 -63.518575,0.3593 -64.527572,-0.011 z m 43.836815,-4.79675 c 0.108194,-0.1082 0.05414,-0.67259 -0.12011,-1.2542 -0.358082,-1.19517 -0.572267,-1.28811 -3.207541,-1.39181 l -1.719792,-0.0677 v -3.43958 -3.43958 l 2.246598,-0.13229 2.246599,-0.13229 0.582054,-1.19063 c 0.320132,-0.65484 0.589084,-1.3737 0.597672,-1.59745 0.0086,-0.22375 -0.579694,-0.99318 -1.307298,-1.70984 -0.757901,-0.74651 -1.322916,-1.54148 -1.322916,-1.86135 0,-0.59058 4.172299,-4.88553 4.74601,-4.88553 0.172011,0 0.942203,0.59532 1.711537,1.32292 0.769334,0.7276 1.58051,1.32292 1.802614,1.32292 0.222102,0 0.954738,-0.2437 1.628079,-0.54155 l 1.224259,-0.54155 v -1.95309 c 0,-2.69327 0.118398,-2.78465 3.608168,-2.78465 3.744351,0 3.800165,0.0388 3.800165,2.63953 0,1.15046 0.119062,2.16533 0.264583,2.25527 0.175123,0.10823 0.264584,-4.59847 0.264584,-13.92033 0,-12.73387 -0.04197,-14.13022 -0.437883,-14.5677 -0.418891,-0.46287 -1.637131,-0.48385 -28.091145,-0.48385 -25.360355,0 -27.69338,0.0363 -28.137115,0.43788 -0.461783,0.41791 -0.483855,1.50229 -0.483855,23.7715 0,21.88969 0.02865,23.35901 0.463021,23.74417 0.254662,0.22582 0.701146,0.46029 0.992188,0.52106 0.950927,0.19855 38.447398,0.0818 38.649524,-0.1203 z M 47.233335,162.03849 c -0.376737,-0.44773 -0.684977,-1.01975 -0.684977,-1.27115 0,-0.25141 1.4898,-4.61782 3.310665,-9.70314 2.21198,-6.17763 3.494881,-9.39969 3.865769,-9.70906 0.314547,-0.26236 0.990843,-0.46302 1.560608,-0.46302 0.797986,0 1.146868,0.16801 1.690481,0.81405 0.376737,0.44773 0.684977,1.08526 0.684977,1.41674 0,0.52779 -4.619011,13.76162 -6.127552,17.55593 -0.652261,1.64057 -1.299519,2.1737 -2.639049,2.1737 -0.764979,0 -1.124011,-0.17597 -1.660922,-0.81405 z m -7.564143,-2.80845 c -0.218281,-0.0776 -1.795859,-1.52489 -3.505729,-3.21612 -3.037919,-3.00482 -3.108854,-3.10172 -3.108854,-4.24679 0,-1.14364 0.07529,-1.24711 3.131803,-4.30362 3.007184,-3.00719 3.176112,-3.1318 4.245359,-3.1318 1.463979,0 2.412421,0.88603 2.412421,2.25368 0,0.82823 -0.268037,1.2362 -2.02166,3.07712 l -2.021661,2.12231 1.873116,1.89584 c 1.903471,1.92656 2.360938,2.81967 2.059495,4.02071 -0.273984,1.09165 -1.946725,1.92611 -3.06429,1.52867 z m 22.959255,-0.21882 c -0.890289,-0.49635 -1.263423,-1.1623 -1.263423,-2.2549 0,-0.68089 0.349647,-1.19994 1.852083,-2.74941 1.018646,-1.05053 1.852084,-2.07062 1.852084,-2.26687 0,-0.19625 -0.833438,-1.21634 -1.852084,-2.26687 -1.606288,-1.65658 -1.852083,-2.0383 -1.852083,-2.87633 0,-1.38424 0.942377,-2.26513 2.423221,-2.26513 1.082818,0 1.239655,0.1153 4.245358,3.121 3.033342,3.03334 3.121004,3.1535 3.121004,4.27802 0,1.12313 -0.09102,1.24861 -3.108854,4.28565 -3.334602,3.35582 -4.055239,3.75421 -5.417306,2.99484 z m 17.661143,26.32332 c 0.433369,-0.47886 0.494228,-1.14221 0.56438,-6.15156 0.04325,-3.08815 0.01376,-5.9353 -0.06551,-6.32701 -0.347395,-1.71655 -5.534451,-2.09634 -8.273147,-0.60575 -4.583332,2.49456 -5.773981,8.49344 -2.529933,12.74661 l 0.666986,0.87446 h 4.575735 c 4.261255,0 4.609121,-0.0369 5.061485,-0.53675 z M 26.506172,130.78565 c 0.692186,-0.80051 0.58981,-1.92622 -0.234119,-2.57432 -0.383427,-0.30161 -0.903152,-0.54837 -1.154944,-0.54837 -0.876432,0 -1.852083,1.03385 -1.852083,1.96257 0,1.78351 2.063481,2.5221 3.241146,1.16012 z m 7.967964,0.29769 c 1.696378,-1.33437 0.231554,-3.93443 -1.784707,-3.16785 -1.464308,0.55673 -1.563991,2.66539 -0.159593,3.37596 0.895345,0.45302 1.136644,0.42719 1.9443,-0.20811 z m 8.700785,-0.29769 c 0.6487,-0.75022 0.576321,-1.71053 -0.186411,-2.47326 -0.793388,-0.79339 -1.442093,-0.8212 -2.357595,-0.10106 -1.183798,0.93117 -0.841018,2.70048 0.625777,3.23003 0.599568,0.21646 1.400962,-0.0575 1.918229,-0.65571 z"
         id="path850"
         inkscape:connector-curvature="0" />
      <path
         style="fill:#bdbdbd;fill-opacity:1;stroke-width:0.26458332"
         d="m 19.182883,190.21802 c -0.373463,-0.37347 -0.415773,-3.72364 -0.415773,-32.92173 0,-29.19809 0.04231,-32.54826 0.415773,-32.92172 0.373464,-0.37347 3.723639,-0.41578 32.921725,-0.41578 29.198087,0 32.54826,0.0423 32.921724,0.41578 0.373465,0.37346 0.415774,3.72363 0.415774,32.92172 0,29.19809 -0.04231,32.54826 -0.415774,32.92173 -0.373464,0.37346 -3.723637,0.41577 -32.921724,0.41577 -29.198086,0 -32.548261,-0.0423 -32.921725,-0.41577 z m 44.144876,-4.24275 c 0.526867,-0.20217 0.534786,-0.96375 0.02037,-1.95852 -0.384937,-0.74439 -0.470514,-0.77248 -2.579688,-0.84676 l -2.181545,-0.0768 v -3.43958 -3.43958 l 2.246598,-0.13229 2.246599,-0.13229 0.582054,-1.19063 c 0.320132,-0.65484 0.589084,-1.3737 0.597672,-1.59745 0.0086,-0.22375 -0.579694,-0.99318 -1.307298,-1.70984 -0.757901,-0.74651 -1.322916,-1.54148 -1.322916,-1.86135 0,-0.54815 4.152561,-4.88553 4.677356,-4.88553 0.134253,0 0.912022,0.59532 1.728375,1.32292 0.816353,0.7276 1.663687,1.32292 1.882963,1.32292 0.219276,0 0.944337,-0.2339 1.611243,-0.51977 l 1.212562,-0.51976 v -1.97488 c 0,-2.71796 0.113739,-2.80643 3.608168,-2.80643 3.744351,0 3.800165,0.0388 3.800165,2.63953 0,1.15046 0.119062,2.16533 0.264583,2.25527 0.175123,0.10823 0.264584,-4.59847 0.264584,-13.92033 0,-12.73387 -0.04197,-14.13022 -0.437883,-14.5677 -0.418891,-0.46287 -1.637131,-0.48385 -28.091145,-0.48385 -25.360355,0 -27.69338,0.0363 -28.137115,0.43788 -0.461783,0.41791 -0.483855,1.50229 -0.483855,23.7715 0,21.89243 0.0286,23.35852 0.463021,23.73696 0.254662,0.22185 0.641615,0.46903 0.859896,0.54929 0.545748,0.20067 37.95426,0.22702 38.475233,0.0271 z M 47.530396,162.32015 c -1.285684,-1.01132 -1.215382,-1.35251 2.285672,-11.09269 1.801302,-5.01134 3.520361,-9.38689 3.820131,-9.72343 0.846698,-0.95058 2.451462,-0.85344 3.339682,0.20214 0.376737,0.44773 0.684977,1.07507 0.684977,1.39409 0,0.31902 -1.194732,3.91152 -2.654959,7.98334 -3.826896,10.67124 -3.913724,10.88426 -4.627118,11.35169 -0.870934,0.57066 -2.036429,0.52354 -2.848385,-0.11514 z m -7.861204,-3.09011 c -0.218281,-0.0776 -1.795859,-1.52489 -3.505729,-3.21612 -3.037919,-3.00482 -3.108854,-3.10172 -3.108854,-4.24679 0,-1.14364 0.07529,-1.24711 3.131803,-4.30362 3.007725,-3.00773 3.175943,-3.1318 4.245966,-3.1318 1.425091,0 2.411814,0.94833 2.411814,2.31797 0,0.78661 -0.291169,1.217 -2.037008,3.01101 l -2.037008,2.09322 1.898251,1.9113 c 2.07059,2.08481 2.529775,3.13668 1.89063,4.33094 -0.560827,1.04791 -1.856833,1.60127 -2.889865,1.23389 z m 22.827413,-0.32777 c -1.797987,-1.12002 -1.486974,-2.6654 1.053973,-5.23706 l 1.888463,-1.9113 -2.037008,-2.09322 c -1.787364,-1.83668 -2.037009,-2.2119 -2.037009,-3.06167 0,-1.34695 0.946134,-2.26731 2.330815,-2.26731 0.962475,0 1.248302,0.21266 4.245361,3.15866 3.104036,3.05115 3.213407,3.19676 3.213407,4.27802 0,1.07505 -0.123015,1.24314 -3.108854,4.24799 -3.448444,3.47039 -4.081946,3.79984 -5.549148,2.88589 z m 17.899215,26.27188 c 0.518416,-0.65906 0.54837,-1.02723 0.54837,-6.74008 v -6.04294 l -0.859896,-0.45191 c -0.544018,-0.28591 -1.700913,-0.49423 -3.149354,-0.5671 -2.017551,-0.10151 -2.458907,-0.0376 -3.716239,0.53802 -2.029457,0.92911 -3.250123,2.10878 -4.219421,4.07771 -1.451425,2.94826 -1.085289,6.29324 0.986104,9.00898 l 0.666986,0.87446 h 4.59754 4.59754 z M 26.506172,130.90863 c 0.719881,-0.64875 0.598949,-2.04201 -0.234119,-2.6973 -0.383427,-0.30161 -0.903152,-0.54837 -1.154944,-0.54837 -0.88742,0 -1.852083,1.03356 -1.852083,1.98437 0,1.71305 1.91355,2.45771 3.241146,1.2613 z m 7.69031,0.41888 c 0.782539,-0.41189 0.965977,-0.73832 0.970742,-1.72742 0.0072,-1.49022 -1.547214,-2.36846 -2.7718,-1.56608 -1.235208,0.80934 -1.119233,2.79636 0.194014,3.32407 0.806519,0.32409 0.938003,0.32159 1.607044,-0.0306 z m 8.978439,-0.53015 c 0.691488,-0.81719 0.590042,-1.93775 -0.234119,-2.58603 -0.383427,-0.30161 -0.903151,-0.54837 -1.154943,-0.54837 -0.887421,0 -1.852084,1.03356 -1.852084,1.98437 0,1.77271 2.087502,2.51341 3.241146,1.15003 z"
         id="path848"
         inkscape:connector-curvature="0" />
      <path
         style="fill:#afafaf;fill-opacity:1;stroke-width:0.26458332"
         d="m 19.182883,190.21802 c -0.373463,-0.37347 -0.415773,-3.72364 -0.415773,-32.92173 0,-29.19809 0.04231,-32.54826 0.415773,-32.92172 0.373464,-0.37347 3.723639,-0.41578 32.921725,-0.41578 29.198087,0 32.54826,0.0423 32.921724,0.41578 0.373462,0.37346 0.415774,3.72162 0.415774,32.89961 0,31.1338 -0.02011,32.50204 -0.483854,32.92173 -0.444693,0.40244 -3.10924,0.43788 -32.921724,0.43788 -29.136196,0 -32.48019,-0.0423 -32.853645,-0.41577 z m 44.5133,-4.79184 c 0.04521,-0.31758 -0.10419,-0.93785 -0.332002,-1.37839 -0.404338,-0.7819 -0.466143,-0.8028 -2.595742,-0.8778 l -2.18154,-0.0768 -0.07479,-3.13747 c -0.04852,-2.03553 0.02943,-3.26305 0.221948,-3.49502 0.189907,-0.22883 1.025541,-0.38522 2.321086,-0.4344 l 2.024348,-0.0769 0.582356,-1.19063 c 0.320297,-0.65484 0.589386,-1.40611 0.597974,-1.66948 0.0086,-0.26338 -0.579694,-1.10832 -1.307298,-1.87765 -0.727604,-0.76934 -1.322916,-1.57453 -1.322916,-1.78931 0,-0.37858 4.246885,-4.71773 4.61741,-4.71773 0.101282,0 0.948499,0.64845 1.882706,1.44099 l 1.698553,1.44099 1.390769,-0.61247 1.390769,-0.61247 0.132292,-2.13052 c 0.07276,-1.17179 0.227761,-2.22548 0.344445,-2.34154 0.357426,-0.35551 6.608048,-0.13896 6.84694,0.23721 0.114864,0.18087 0.210669,1.18503 0.212897,2.23147 0.0021,1.04644 0.123113,1.9762 0.268634,2.06614 0.175123,0.10823 0.264584,-4.59847 0.264584,-13.92033 0,-12.73387 -0.04197,-14.13022 -0.437883,-14.5677 -0.418891,-0.46287 -1.637131,-0.48385 -28.091145,-0.48385 -25.360355,0 -27.69338,0.0363 -28.137115,0.43788 -0.461835,0.41796 -0.48367,1.49864 -0.479803,23.74636 0.0022,12.81965 0.09153,23.43771 0.198437,23.59566 0.585345,0.86482 1.195423,0.88945 20.567302,0.83021 l 19.314582,-0.0591 z M 47.499115,162.25723 c -0.366438,-0.32742 -0.728925,-0.89297 -0.805527,-1.25677 -0.190518,-0.90482 6.166818,-18.63669 6.987415,-19.48929 0.867855,-0.9017 2.215269,-0.83684 3.206457,0.15435 0.42537,0.42537 0.773398,1.04111 0.773398,1.36832 0,0.32721 -1.240256,4.05707 -2.756125,8.28858 -4.028464,11.24537 -3.7964,10.69069 -4.659487,11.13701 -1.073115,0.55493 -1.972926,0.48868 -2.746131,-0.2022 z m -7.829923,-3.02719 c -0.218281,-0.0776 -1.795859,-1.52489 -3.505729,-3.21612 -2.955056,-2.92286 -3.108854,-3.12822 -3.108854,-4.15101 0,-1.02579 0.152407,-1.2267 3.26474,-4.30361 2.752682,-2.72136 3.392515,-3.22759 4.079402,-3.22759 1.176867,0 1.621658,0.23278 2.058351,1.07725 0.748512,1.44747 0.530263,2.01139 -1.642583,4.2442 l -2.029672,2.08568 1.88103,1.93991 c 1.034567,1.06695 1.961407,2.26016 2.059644,2.65157 0.440234,1.75404 -1.391413,3.49182 -3.056329,2.89972 z m 23.13017,-0.1865 c -0.960837,-0.42546 -1.573006,-1.6879 -1.315667,-2.71322 0.09824,-0.39141 1.028107,-1.58774 2.066377,-2.65851 l 1.887763,-1.94686 -1.923929,-1.93685 c -1.60375,-1.61453 -1.947994,-2.11629 -2.068544,-3.01505 -0.193267,-1.44092 0.719204,-2.44134 2.22671,-2.44134 0.937088,0 1.236464,0.22883 4.245361,3.24496 3.033045,3.04035 3.237174,3.31011 3.237174,4.27802 0,0.96544 -0.203462,1.23716 -3.108854,4.15191 -1.780064,1.7858 -3.391574,3.17845 -3.770312,3.25826 -0.363802,0.0767 -1.028039,-0.0229 -1.476079,-0.22132 z m 17.245324,26.62526 c 0.782804,-0.52269 0.899504,-1.4744 0.899504,-7.33562 v -5.98539 l -1.229095,-0.54369 c -0.869429,-0.38459 -1.787258,-0.54369 -3.13653,-0.54369 -4.043143,0 -7.216084,2.47899 -8.227864,6.42834 -0.63958,2.49653 -0.06044,5.08565 1.634683,7.30808 l 0.666986,0.87446 4.550597,-0.004 c 2.502829,-0.002 4.681601,-0.0915 4.841719,-0.19844 z M 26.272053,131.08334 c 0.505625,-0.39773 0.69714,-0.79222 0.69714,-1.43601 0,-0.95081 -0.964663,-1.98437 -1.852084,-1.98437 -0.88742,0 -1.852083,1.03356 -1.852083,1.98437 0,0.95081 0.964663,1.98438 1.852083,1.98438 0.251792,0 0.771517,-0.24677 1.154944,-0.54837 z m 7.947562,0.24732 c 1.498523,-0.68278 1.263843,-3.17628 -0.331927,-3.52677 -1.978502,-0.43455 -3.197161,1.75237 -1.771147,3.17839 0.723099,0.7231 1.131993,0.79083 2.103074,0.34838 z m 8.73535,-0.25846 c 0.572912,-0.45066 0.695677,-0.74153 0.630994,-1.49507 -0.210023,-2.44667 -3.659925,-2.42496 -3.648132,0.023 0.0047,0.96627 0.181688,1.29566 0.92199,1.71546 0.780193,0.44242 1.300105,0.38203 2.095148,-0.24335 z"
         id="path846"
         inkscape:connector-curvature="0" />
      <path
         style="fill:#a1a1a1;fill-opacity:1;stroke-width:0.26458332"
         d="m 19.204992,190.14994 c -0.402439,-0.4447 -0.437882,-3.10771 -0.437882,-32.89962 0,-31.06785 0.02012,-32.43397 0.483854,-32.85365 0.444689,-0.40244 3.107704,-0.43788 32.899615,-0.43788 31.067845,0 32.43397,0.0201 32.853645,0.48386 0.402439,0.44468 0.437882,3.1077 0.437882,32.89961 0,31.06785 -0.02011,32.43397 -0.483854,32.85365 -0.44469,0.40244 -3.107703,0.43788 -32.899615,0.43788 -31.067846,0 -32.433971,-0.0201 -32.853645,-0.48385 z m 44.477404,-4.80782 c 0.03763,-0.3638 -0.0844,-0.95911 -0.271177,-1.32291 -0.312203,-0.60811 -0.520441,-0.67213 -2.581955,-0.79375 l -2.242365,-0.1323 -0.07479,-3.13747 c -0.04852,-2.03553 0.02943,-3.26305 0.221948,-3.49502 0.189989,-0.22892 1.025948,-0.3852 2.323748,-0.4344 l 2.02701,-0.0769 0.584406,-1.19063 c 0.844394,-1.7203 0.765882,-2.11159 -0.716698,-3.57187 -0.727604,-0.71667 -1.322916,-1.49474 -1.322916,-1.72906 0,-0.40675 4.227729,-4.75324 4.623363,-4.75324 0.104558,0 0.936567,0.65536 1.848908,1.45635 l 1.658805,1.45635 1.490713,-0.65926 1.49071,-0.65926 v -1.9348 c 0,-1.15206 0.128447,-2.06324 0.3175,-2.25229 0.212225,-0.21223 1.387181,-0.3175 3.543567,-0.3175 3.719719,0 3.547266,-0.12892 3.547266,2.65186 0,0.99815 0.119062,1.88841 0.264583,1.97835 0.175131,0.10823 0.264584,-4.62117 0.264584,-13.98841 0,-12.5126 -0.04816,-14.20008 -0.415775,-14.5677 -0.372689,-0.37269 -3.290683,-0.41577 -28.159224,-0.41577 -24.868541,0 -27.786536,0.0431 -28.159225,0.41577 -0.371751,0.37176 -0.415345,2.88602 -0.411722,23.74636 0.0022,12.83182 0.09153,23.45982 0.198437,23.61777 0.585345,0.86482 1.195423,0.88945 20.567302,0.83021 l 19.314582,-0.0591 z M 47.539815,162.32756 c -0.367074,-0.28874 -0.741087,-0.81855 -0.83114,-1.17735 -0.217536,-0.86673 6.015222,-18.42265 6.923828,-19.50247 0.883062,-1.04946 2.194882,-1.04229 3.254957,0.0178 0.42537,0.42537 0.773398,1.03352 0.773398,1.35144 0,0.63609 -6.133224,17.90815 -6.656803,18.74653 -0.706329,1.13101 -2.394119,1.40583 -3.46424,0.56407 z M 39.5369,159.15807 c -0.291041,-0.12173 -1.868619,-1.58419 -3.505729,-3.24989 -4.077271,-4.14849 -4.083394,-3.964 0.276256,-8.32365 2.920375,-2.92038 3.346269,-3.25196 4.167188,-3.24441 1.011457,0.009 1.597459,0.35918 2.061776,1.23096 0.669493,1.25703 0.395732,1.90604 -1.721872,4.08208 l -2.029672,2.08568 1.88103,1.93991 c 1.034567,1.06695 1.961407,2.26016 2.059644,2.65157 0.266939,1.06357 -0.353946,2.29226 -1.37362,2.71831 -0.9845,0.41135 -1.079531,0.41708 -1.815001,0.10944 z m 23.262462,-0.12695 c -0.961276,-0.411 -1.574451,-1.66972 -1.315667,-2.7008 0.09824,-0.39141 1.024816,-1.58434 2.059062,-2.65097 l 1.880446,-1.93931 -1.880446,-1.93931 c -1.034246,-1.06663 -1.958089,-2.24866 -2.052982,-2.62674 -0.371827,-1.48148 0.702636,-2.84228 2.244214,-2.84228 0.857899,0 1.248577,0.30303 4.183444,3.24496 3.033045,3.04035 3.237174,3.31011 3.237174,4.27802 0,0.96632 -0.200819,1.23351 -3.108854,4.13642 -1.75524,1.75215 -3.396858,3.16541 -3.770312,3.24584 -0.363802,0.0784 -1.028039,-0.0143 -1.476079,-0.20583 z m 17.245324,26.63768 c 0.782804,-0.52269 0.899504,-1.4744 0.899504,-7.33562 v -5.98539 l -1.256771,-0.55727 c -1.835237,-0.81377 -4.526655,-0.77033 -6.428337,0.10376 -2.74084,1.25979 -4.184423,2.96859 -4.914146,5.81697 -0.633532,2.47293 -0.04848,5.07128 1.640448,7.28558 l 0.666986,0.87446 4.550597,-0.004 c 2.502829,-0.002 4.681601,-0.0915 4.841719,-0.19844 z M 26.286215,131.0722 c 0.95326,-0.74984 0.878402,-2.18701 -0.153885,-2.9544 -1.929678,-1.4345 -4.061112,1.47812 -2.170164,2.96554 0.882752,0.69437 1.430472,0.69175 2.324049,-0.0111 z m 7.909325,0.31382 c 0.918443,-0.34919 1.346779,-1.69139 0.847744,-2.65641 -0.647626,-1.25237 -1.911431,-1.43253 -2.926743,-0.41722 -0.357188,0.35719 -0.649432,0.95791 -0.649432,1.33494 0,0.74306 1.057513,1.98438 1.690541,1.98438 0.215422,0 0.682473,-0.11056 1.03789,-0.24569 z m 8.745262,-0.30268 c 1.397235,-1.09907 0.499409,-3.42038 -1.322917,-3.42038 -0.898212,0 -1.684864,0.89817 -1.680058,1.91823 0.0046,0.98509 0.178962,1.31301 0.92199,1.73436 0.777153,0.44069 1.299648,0.38239 2.080985,-0.23221 z"
         id="path844"
         inkscape:connector-curvature="0" />
      <path
         style="fill:#939393;fill-opacity:1;stroke-width:0.26458332"
         d="m 19.204992,190.14994 c -0.402439,-0.4447 -0.437882,-3.10771 -0.437882,-32.89962 0,-31.06785 0.02012,-32.43397 0.483854,-32.85365 0.444689,-0.40244 3.107704,-0.43788 32.899615,-0.43788 31.067845,0 32.43397,0.0201 32.853645,0.48386 0.402439,0.44468 0.437882,3.1077 0.437882,32.89961 0,31.06785 -0.02011,32.43397 -0.483854,32.85365 -0.44469,0.40244 -3.107703,0.43788 -32.899615,0.43788 -31.067846,0 -32.433971,-0.0201 -32.853645,-0.48385 z m 44.379238,-5.13373 c -0.04698,-1.559 -0.403193,-1.79075 -2.752463,-1.79075 -1.630693,0 -2.089182,-0.0866 -2.21656,-0.41852 -0.325802,-0.84902 -0.175776,-6.11868 0.182666,-6.41616 0.188799,-0.15669 1.27268,-0.32009 2.408631,-0.36312 l 2.065364,-0.0782 0.501571,-1.32292 c 0.275865,-0.72761 0.501668,-1.50599 0.501787,-1.72974 1.17e-4,-0.22375 -0.595098,-0.99318 -1.322702,-1.70984 -0.727604,-0.71667 -1.322916,-1.46902 -1.322916,-1.6719 0,-0.39862 3.540423,-4.17093 4.29683,-4.57826 0.357116,-0.19231 0.713168,-0.0232 1.5875,0.75393 2.42371,2.15431 2.063406,2.03016 3.740047,1.28867 l 1.488122,-0.65812 v -1.75174 c 0,-2.78658 -0.01552,-2.77529 3.817458,-2.77529 3.769064,0 3.590875,-0.13159 3.590875,2.65186 0,0.99815 0.119062,1.88841 0.264583,1.97835 0.175131,0.10823 0.264584,-4.62117 0.264584,-13.98841 0,-12.5126 -0.04816,-14.20008 -0.415775,-14.5677 -0.372689,-0.37269 -3.290683,-0.41577 -28.159224,-0.41577 -24.868541,0 -27.786536,0.0431 -28.159225,0.41577 -0.371693,0.3717 -0.415774,2.89093 -0.415774,23.76194 0,24.26198 -0.01413,23.93719 1.058334,24.3229 0.218281,0.0785 9.088437,0.12197 19.711457,0.0966 l 19.314582,-0.0461 z M 47.780338,162.55289 c -0.268296,-0.15596 -0.656014,-0.68612 -0.861595,-1.17815 -0.364061,-0.87132 -0.287925,-1.13386 2.927001,-10.09329 3.525742,-9.82561 3.82248,-10.38933 5.468971,-10.38933 0.941785,0 2.346143,1.25253 2.346143,2.09249 0,0.30014 -1.432976,4.56578 -3.184388,9.47921 -2.625918,7.36677 -3.322679,9.06112 -3.972924,9.66112 -0.827855,0.76388 -1.864927,0.92686 -2.723208,0.42795 z m -8.243438,-3.5158 c -0.436562,-0.19533 -2.073671,-1.66116 -3.63802,-3.25739 -3.924087,-4.00407 -3.931514,-3.85511 0.408547,-8.19517 2.927636,-2.92764 3.345853,-3.25282 4.183443,-3.25282 1.551617,0 2.668633,1.49696 2.206831,2.95746 -0.106849,0.33793 -1.03069,1.47761 -2.052979,2.53264 l -1.858709,1.91823 1.880447,1.93931 c 1.034246,1.06663 1.960824,2.25956 2.059061,2.65097 0.258071,1.02824 -0.321511,2.18637 -1.334788,2.6672 -1.027601,0.48763 -0.860425,0.48406 -1.853833,0.0396 z m 23.262462,5.3e-4 c -0.961051,-0.41847 -1.573704,-1.67911 -1.315667,-2.70721 0.09824,-0.39141 1.024816,-1.58435 2.059062,-2.65097 l 1.880446,-1.9394 -1.880446,-1.93931 c -1.034246,-1.06663 -1.958089,-2.24866 -2.052982,-2.62674 -0.368464,-1.46808 0.703257,-2.84228 2.21665,-2.84228 0.819923,0 1.269736,0.34703 4.183443,3.22759 3.081031,3.04597 3.264739,3.28641 3.264739,4.27287 0,0.97249 -0.19807,1.24742 -2.844271,3.94789 -1.564349,1.59643 -3.2274,3.06692 -3.695668,3.26775 -0.999897,0.42884 -0.804309,0.42994 -1.815306,-0.0103 z m 17.498946,26.45859 c 0.479761,-0.35046 0.518832,-0.79544 0.593161,-6.75581 l 0.07957,-6.38065 -1.270196,-0.57121 c -3.868698,-1.73976 -9.170471,0.3919 -10.943436,4.39998 -1.309007,2.95923 -0.727755,6.64316 1.433833,9.08754 0.507343,0.57372 0.690903,0.59532 5.059957,0.59532 3.49535,0 4.651132,-0.0859 5.047111,-0.37517 z M 26.272053,131.08334 c 0.90061,-0.70842 0.957598,-2.09878 0.118083,-2.88091 -0.653897,-0.6092 -1.304657,-0.6804 -2.150316,-0.23528 -0.776247,0.40859 -0.966691,0.73959 -0.966691,1.68018 0,0.91817 0.183571,1.25178 0.917939,1.66821 0.777152,0.4407 1.299648,0.3824 2.080985,-0.2322 z m 7.961327,0.38401 c 0.235565,-0.0904 0.605017,-0.50608 0.821003,-0.92376 1.025639,-1.98336 -1.126157,-3.71981 -2.890134,-2.33226 -1.691308,1.33038 0.02972,4.03862 2.069131,3.25602 z m 8.707422,-0.38401 c 1.397235,-1.09907 0.499409,-3.42038 -1.322917,-3.42038 -0.898212,0 -1.684864,0.89817 -1.680058,1.91823 0.0046,0.98509 0.178962,1.31301 0.92199,1.73435 0.777153,0.4407 1.299648,0.3824 2.080985,-0.2322 z"
         id="path842"
         inkscape:connector-curvature="0" />
      <path
         style="fill:#858585;fill-opacity:1;stroke-width:0.26458332"
         d="m 19.204992,190.14994 c -0.402439,-0.4447 -0.437882,-3.10771 -0.437882,-32.89962 0,-31.06785 0.02012,-32.43397 0.483854,-32.85365 0.444689,-0.40244 3.107704,-0.43788 32.899615,-0.43788 31.067845,0 32.43397,0.0201 32.853645,0.48386 0.402439,0.44468 0.437882,3.1077 0.437882,32.89961 0,31.06785 -0.02011,32.43397 -0.483854,32.85365 -0.44469,0.40244 -3.107703,0.43788 -32.899615,0.43788 -31.067846,0 -32.433971,-0.0201 -32.853645,-0.48385 z m 44.521941,-4.38764 c 0.240792,-0.29013 0.203443,-0.60037 -0.167235,-1.38906 l -0.477271,-1.01549 -2.107383,-0.0783 c -1.274818,-0.0474 -2.187374,-0.20417 -2.309857,-0.39688 -0.363437,-0.57179 -0.248912,-6.17507 0.132686,-6.49177 0.188799,-0.15669 1.27268,-0.32009 2.408631,-0.36312 l 2.065364,-0.0782 0.501571,-1.32292 c 0.275865,-0.72761 0.501668,-1.50599 0.501787,-1.72974 1.17e-4,-0.22375 -0.595098,-0.99318 -1.322702,-1.70984 -0.727604,-0.71667 -1.322916,-1.42905 -1.322916,-1.58308 0,-0.15402 1.059902,-1.33503 2.355339,-2.62447 l 2.355339,-2.34442 1.282681,1.16737 c 2.175661,1.98008 1.995993,1.91716 3.577913,1.25293 0.774914,-0.32538 1.468467,-0.63961 1.541227,-0.69828 0.07276,-0.0587 0.191823,-1.07953 0.264583,-2.26857 l 0.132292,-2.1619 3.286418,-0.0746 c 2.451418,-0.0557 3.341111,0.0115 3.501679,0.26458 0.118393,0.18658 0.217082,1.19541 0.21931,2.24185 0.0021,1.04644 0.123113,1.9762 0.268634,2.06614 0.175131,0.10823 0.264584,-4.62117 0.264584,-13.98841 0,-12.51261 -0.04816,-14.20008 -0.415775,-14.5677 -0.372689,-0.37269 -3.290683,-0.41577 -28.159224,-0.41577 -24.868541,0 -27.786536,0.0431 -28.159225,0.41577 -0.371707,0.37171 -0.415774,2.89553 -0.415774,23.8125 0,23.04395 0.008,23.40471 0.529167,23.9259 0.519551,0.51955 0.881944,0.52916 19.943644,0.52916 16.396245,0 19.462676,-0.0581 19.724513,-0.37357 z M 47.462375,162.20311 c -0.626886,-0.62688 -0.765937,-1.06383 -0.660871,-2.0767 0.02722,-0.26245 1.467953,-4.42964 3.201622,-9.26042 3.365272,-9.37715 3.68305,-9.97387 5.311589,-9.97387 0.93458,0 2.346143,1.25028 2.346143,2.07807 0,0.2922 -1.434941,4.55784 -3.188758,9.47921 -2.617116,7.34385 -3.329337,9.07837 -3.972925,9.67554 -1.003544,0.93116 -2.154195,0.96078 -3.0368,0.0782 z m -11.286763,-6.17574 c -2.920658,-2.92066 -3.121003,-3.18741 -3.121003,-4.15551 0,-0.97048 0.201357,-1.23587 3.252818,-4.28733 2.961614,-2.96162 3.338493,-3.25282 4.209814,-3.25282 0.74382,0 1.109576,0.18133 1.641973,0.81405 1.191029,1.41546 0.931925,2.16927 -1.652748,4.80834 l -1.749124,1.78594 1.749124,1.78594 c 2.584673,2.63907 2.843777,3.39289 1.652748,4.80834 -0.560542,0.66617 -0.882776,0.81405 -1.773788,0.81405 -1.037433,0 -1.236079,-0.14727 -4.209814,-3.121 z m 26.036256,2.58451 c -0.692539,-0.64519 -0.964541,-1.58545 -0.700352,-2.42097 0.106847,-0.33793 1.033878,-1.4809 2.060064,-2.53995 l 1.865792,-1.92553 -1.741871,-1.77864 c -2.57687,-2.63124 -2.835733,-3.38652 -1.6455,-4.80103 0.532398,-0.63272 0.898155,-0.81405 1.641975,-0.81405 0.871321,0 1.248199,0.2912 4.209812,3.25282 3.051463,3.05146 3.252819,3.31685 3.252819,4.28733 0,0.9681 -0.200345,1.23485 -3.121004,4.15551 -2.948635,2.94864 -3.17968,3.121 -4.183443,3.121 -0.701553,0 -1.258043,-0.18223 -1.638292,-0.53649 z m 18.203155,26.73024 c 0.499216,-0.49921 0.529167,-0.88194 0.529167,-6.76175 v -6.23258 l -1.124479,-0.49243 c -3.323013,-1.45519 -7.244659,-0.54078 -9.706676,2.26331 -1.465299,1.66888 -1.980303,3.11704 -1.968362,5.53491 0.01148,2.32658 0.517623,3.82874 1.805924,5.3598 l 0.721884,0.85791 h 4.606686 c 4.253913,0 4.647213,-0.0405 5.135856,-0.52917 z m -54.14297,-54.25878 c 1.397946,-1.09963 0.614307,-3.42038 -1.154944,-3.42038 -1.052015,0 -1.853151,0.83156 -1.848031,1.91823 0.0046,0.98509 0.178962,1.31301 0.92199,1.73435 0.777152,0.4407 1.299648,0.3824 2.080985,-0.2322 z m 8.393661,0.0533 c 1.30732,-1.05861 0.467556,-3.47367 -1.20786,-3.47367 -1.79615,0 -2.677926,2.33147 -1.293605,3.42038 0.864966,0.68038 1.704942,0.69827 2.501465,0.0533 z m 8.275088,-0.0533 c 1.787186,-1.4058 0.06975,-4.07679 -2.088768,-3.24849 -0.679879,0.26089 -1.177741,1.65566 -0.878995,2.46251 0.514732,1.39018 1.775245,1.72401 2.967763,0.78598 z"
         id="path840"
         inkscape:connector-curvature="0" />
      <path
         style="fill:#787878;fill-opacity:1;stroke-width:0.26458332"
         d="m 19.204992,190.14994 c -0.402439,-0.4447 -0.437882,-3.10771 -0.437882,-32.89962 0,-31.06785 0.02012,-32.43397 0.483854,-32.85365 0.444689,-0.40244 3.107704,-0.43788 32.899615,-0.43788 31.067845,0 32.43397,0.0201 32.853645,0.48386 0.402439,0.44468 0.437882,3.1077 0.437882,32.89961 0,31.06785 -0.02011,32.43397 -0.483854,32.85365 -0.44469,0.40244 -3.107703,0.43788 -32.899615,0.43788 -31.067846,0 -32.433971,-0.0201 -32.853645,-0.48385 z m 44.521941,-4.38764 c 0.240792,-0.29013 0.203457,-0.60037 -0.167161,-1.38906 l -0.477195,-1.01549 -1.971434,-0.0788 c -1.084289,-0.0434 -2.12558,-0.20677 -2.313985,-0.36313 -0.483475,-0.40125 -0.482848,-6.12369 7.94e-4,-6.52501 0.188799,-0.15669 1.27268,-0.32009 2.408632,-0.36312 l 2.065364,-0.0782 0.50157,-1.32292 c 0.275865,-0.72761 0.501669,-1.50599 0.501788,-1.72974 3.7e-5,-0.22375 -0.595178,-0.99318 -1.322782,-1.70984 -0.727604,-0.71667 -1.322916,-1.42408 -1.322916,-1.57203 0,-0.43961 4.317814,-4.64568 4.769106,-4.64568 0.228343,0 0.885814,0.48567 1.46105,1.07927 1.560544,1.61038 1.760794,1.66994 3.358965,0.99909 0.765098,-0.32116 1.450618,-0.63193 1.523378,-0.6906 0.07276,-0.0587 0.191823,-1.07953 0.264583,-2.26857 l 0.132292,-2.1619 3.137474,-0.0748 c 2.08698,-0.0498 3.260775,0.0275 3.505729,0.23083 0.253233,0.21017 0.368255,0.91044 0.368255,2.24199 0,1.065 0.119062,2.00995 0.264583,2.09989 0.175131,0.10823 0.264584,-4.62117 0.264584,-13.98841 0,-12.51261 -0.04816,-14.20008 -0.415775,-14.5677 -0.37267,-0.37267 -3.281955,-0.41577 -28.063225,-0.41577 -18.552114,0 -27.815813,0.0901 -28.159225,0.27389 -0.500116,0.26766 -0.511773,0.81269 -0.511773,23.92979 v 23.6559 l 0.588038,0.41188 c 0.519211,0.36366 2.853529,0.41187 19.943644,0.41187 16.345547,0 19.403821,-0.0581 19.665642,-0.37357 z M 47.462375,162.20311 c -0.428377,-0.42838 -0.649433,-0.94805 -0.649433,-1.52674 0,-0.48252 1.429424,-4.86348 3.176497,-9.73546 3.365286,-9.38463 3.713549,-10.04879 5.269243,-10.04879 0.962782,0 2.053709,0.86784 2.257541,1.79589 0.118629,0.54011 -0.676788,3.07951 -3.044661,9.72022 -2.604756,7.30505 -3.350553,9.12542 -3.980896,9.71671 -0.993259,0.93172 -2.145006,0.96146 -3.028291,0.0782 z m -11.286763,-6.17574 c -2.920658,-2.92066 -3.121003,-3.18741 -3.121003,-4.15551 0,-0.97048 0.201357,-1.23587 3.252818,-4.28733 2.839549,-2.83955 3.363171,-3.25282 4.121395,-3.25282 0.607226,0 1.101285,0.23271 1.641972,0.77339 1.328004,1.32801 1.054856,2.17469 -1.564328,4.849 l -1.749124,1.78594 1.764635,1.78594 c 2.454986,2.48462 2.782692,3.44705 1.637237,4.80834 -0.560542,0.66617 -0.882776,0.81405 -1.773788,0.81405 -1.037433,0 -1.236079,-0.14727 -4.209814,-3.121 z m 25.874389,2.30695 c -1.145452,-1.36129 -0.817747,-2.32372 1.637239,-4.80834 l 1.764633,-1.78594 -1.749123,-1.78594 c -2.619184,-2.67431 -2.892332,-3.52099 -1.564328,-4.849 0.540687,-0.54068 1.034746,-0.77339 1.641973,-0.77339 0.758221,0 1.281845,0.41327 4.121393,3.25282 3.051463,3.05146 3.252819,3.31685 3.252819,4.28733 0,0.9681 -0.200345,1.23485 -3.121004,4.15551 -2.973734,2.97373 -3.17238,3.121 -4.209811,3.121 -0.891014,0 -1.213247,-0.14788 -1.773791,-0.81405 z m 18.482312,26.94893 c 0.344212,-0.49143 0.411877,-1.60228 0.411877,-6.76175 v -6.17371 l -1.256771,-0.57658 c -0.947862,-0.43485 -1.744522,-0.57363 -3.241146,-0.56462 -2.469186,0.0149 -4.443933,0.876 -6.080645,2.65163 -1.697342,1.8414 -2.251356,3.27568 -2.238542,5.79536 0.01183,2.32747 0.518234,3.81941 1.818568,5.35781 l 0.726827,0.8599 h 4.723976 c 4.581689,0 4.736383,-0.0177 5.135856,-0.58804 z M 26.390136,131.09223 c 1.18958,-1.10826 0.43215,-3.42927 -1.119096,-3.42927 -1.036878,0 -1.514563,0.29353 -1.875794,1.15264 -0.847928,2.01663 1.421904,3.74209 2.99489,2.27663 z m 8.275578,0.0444 c 1.30732,-1.0586 0.467556,-3.47367 -1.20786,-3.47367 -1.79615,0 -2.677926,2.33147 -1.293605,3.42038 0.864966,0.68038 1.704942,0.69828 2.501465,0.0533 z m 8.275088,-0.0533 c 1.368542,-1.07649 0.583249,-3.42038 -1.145962,-3.42038 -1.562548,0 -2.461771,1.49296 -1.739954,2.8888 0.627574,1.21359 1.754895,1.42124 2.885916,0.53158 z"
         id="path838"
         inkscape:connector-curvature="0" />
      <path
         style="fill:#6a6a6a;fill-opacity:1;stroke-width:0.26458332"
         d="m 19.204992,190.14994 c -0.402439,-0.4447 -0.437882,-3.10771 -0.437882,-32.89962 0,-31.06785 0.02012,-32.43397 0.483854,-32.85365 0.444689,-0.40244 3.107704,-0.43788 32.899615,-0.43788 31.067845,0 32.43397,0.0201 32.853645,0.48386 0.402439,0.44468 0.437882,3.1077 0.437882,32.89961 0,31.06785 -0.02011,32.43397 -0.483854,32.85365 -0.44469,0.40244 -3.107703,0.43788 -32.899615,0.43788 -31.067846,0 -32.433971,-0.0201 -32.853645,-0.48385 z m 44.521941,-4.38764 c 0.240792,-0.29013 0.203457,-0.60037 -0.167161,-1.38906 l -0.477195,-1.01549 -1.971434,-0.0788 c -1.084289,-0.0434 -2.12558,-0.20677 -2.313985,-0.36313 -0.461356,-0.38289 -0.483174,-6.05846 -0.02506,-6.51658 0.192577,-0.19258 1.128099,-0.3175 2.3777,-0.3175 h 2.060199 l 0.421624,-0.99219 c 0.878099,-2.06639 0.81271,-2.45214 -0.65985,-3.89266 -0.73819,-0.72213 -1.342167,-1.43402 -1.342167,-1.58197 0,-0.41724 4.306188,-4.64568 4.731093,-4.64568 0.207434,0 1.006607,0.59531 1.775942,1.32291 0.769334,0.72761 1.509842,1.32292 1.645576,1.32292 0.259048,0 2.731698,-1.04076 2.959888,-1.24585 0.07276,-0.0654 0.191823,-1.09175 0.264583,-2.28079 l 0.132292,-2.1619 3.17201,-0.0751 c 3.810979,-0.0902 3.839448,-0.0697 3.839448,2.77149 0,1.55686 0.07867,1.93381 0.403593,1.93381 0.3576,0 0.395287,-1.60844 0.330729,-14.11473 -0.05933,-11.49362 -0.140295,-14.19595 -0.435988,-14.55209 -0.333529,-0.4017 -2.643974,-0.43735 -28.344166,-0.43735 -25.705061,0 -28.010575,0.0356 -28.344164,0.43754 -0.301743,0.36358 -0.363126,4.39279 -0.363126,23.83588 v 23.39833 l 0.624624,0.50579 c 0.602298,0.48771 1.317494,0.50579 20.009789,0.50579 16.371004,0 19.433373,-0.0581 19.695202,-0.37357 z M 47.462375,162.20311 c -0.427697,-0.4277 -0.648981,-0.94713 -0.648108,-1.52136 7.94e-4,-0.47955 1.432311,-4.86051 3.181294,-9.73546 3.365908,-9.3818 3.717875,-10.05417 5.263121,-10.05417 0.945327,0 2.026118,0.84275 2.256139,1.75922 0.134223,0.5348 -0.613373,2.9276 -3.039253,9.72763 -2.601891,7.29339 -3.364862,9.15753 -3.988911,9.74597 -0.988412,0.93199 -2.140677,0.96178 -3.024282,0.0782 z m -11.286763,-6.17574 c -2.920658,-2.92066 -3.121003,-3.18741 -3.121003,-4.15551 0,-0.97048 0.201357,-1.23587 3.252818,-4.28733 2.839549,-2.83955 3.363171,-3.25282 4.121395,-3.25282 0.607226,0 1.101285,0.23271 1.641972,0.77339 1.326981,1.32698 1.054263,2.17524 -1.5564,4.84101 l -1.741195,1.77795 1.765581,1.82883 c 2.459828,2.54794 2.75102,3.56248 1.435131,5.00017 -0.39241,0.42874 -0.843222,0.59531 -1.611086,0.59531 -1.008576,0 -1.234914,-0.1687 -4.187213,-3.121 z m 26.059693,2.52569 c -1.322364,-1.44476 -1.006261,-2.53921 1.451935,-5.02708 l 1.764633,-1.78594 -1.764633,-1.78594 c -2.49846,-2.52862 -2.830295,-3.56752 -1.548818,-4.849 0.540687,-0.54068 1.034746,-0.77339 1.641973,-0.77339 0.758221,0 1.281845,0.41327 4.121393,3.25282 4.376221,4.37621 4.372544,4.15469 0.139782,8.42396 -2.957833,2.98334 -3.166594,3.13988 -4.187214,3.13988 -0.776123,0 -1.225359,-0.16518 -1.619051,-0.59531 z m 18.208378,26.82009 c 0.47616,-0.5887 0.505227,-1.044 0.439068,-6.87725 l -0.07085,-6.24681 -1.058333,-0.51627 c -0.769766,-0.3755 -1.635472,-0.51998 -3.175,-0.52987 -1.792629,-0.0115 -2.345174,0.0984 -3.609316,0.71821 -1.74367,0.85486 -3.478763,2.62926 -4.281659,4.37865 -0.882333,1.92247 -0.809527,4.99426 0.165431,6.97965 0.407617,0.83006 1.110599,1.8201 1.562184,2.20008 l 0.82106,0.69088 4.34875,-0.0834 c 4.21463,-0.0808 4.364477,-0.10286 4.858668,-0.71385 z M 26.440026,131.10254 c 1.133133,-1.13313 0.349257,-3.43958 -1.168986,-3.43958 -1.036878,0 -1.514563,0.29353 -1.875794,1.15264 -0.845395,2.01061 1.53397,3.79775 3.04478,2.28694 z m 8.346401,-0.12026 c 0.357188,-0.35719 0.649432,-0.95792 0.649432,-1.33495 0,-0.90226 -1.102321,-1.98437 -2.021442,-1.98437 -1.776527,0 -2.629988,2.33501 -1.250168,3.42038 0.924786,0.72743 1.82851,0.6926 2.622178,-0.10106 z m 8.272458,0.10995 c 1.243238,-1.15825 0.419593,-3.42927 -1.243715,-3.42927 -1.180852,0 -1.987228,0.80522 -1.987228,1.98437 0,1.75602 1.957407,2.63138 3.230943,1.4449 z"
         id="path836"
         inkscape:connector-curvature="0" />
      <path
         style="fill:#5c5c5c;fill-opacity:1;stroke-width:0.26458332"
         d="m 19.204992,190.14994 c -0.402439,-0.4447 -0.437882,-3.10771 -0.437882,-32.89962 0,-31.06785 0.02012,-32.43397 0.483854,-32.85365 0.444689,-0.40244 3.107704,-0.43788 32.899615,-0.43788 31.067845,0 32.43397,0.0201 32.853645,0.48386 0.402439,0.44468 0.437882,3.1077 0.437882,32.89961 0,31.06785 -0.02011,32.43397 -0.483854,32.85365 -0.44469,0.40244 -3.107703,0.43788 -32.899615,0.43788 -31.067846,0 -32.433971,-0.0201 -32.853645,-0.48385 z m 44.534551,-4.40283 c 0.257583,-0.31037 0.2241,-0.59048 -0.166042,-1.38907 l -0.488685,-1.00029 -1.972554,-0.0788 c -1.084902,-0.0434 -2.126699,-0.20677 -2.315104,-0.36313 -0.483475,-0.40125 -0.482848,-6.12369 7.94e-4,-6.52501 0.188799,-0.15669 1.271646,-0.32009 2.406333,-0.36312 l 2.063064,-0.0782 0.629161,-1.54857 0.62916,-1.54856 -1.447993,-1.51807 c -0.796472,-0.83493 -1.448069,-1.62388 -1.448069,-1.7532 0,-0.39364 4.327276,-4.61181 4.731093,-4.61181 0.207434,0 1.006607,0.59531 1.775942,1.32291 0.769334,0.72761 1.509842,1.32292 1.645576,1.32292 0.259048,0 2.731698,-1.04076 2.959888,-1.24585 0.07276,-0.0654 0.191823,-1.09175 0.264583,-2.28079 l 0.132292,-2.1619 h 3.307291 3.307292 l 0.06768,1.71979 c 0.08883,2.25735 0.254392,2.91042 0.737833,2.91042 0.350951,0 0.389848,-1.68947 0.325689,-14.14591 -0.06784,-13.17085 -0.105431,-14.17847 -0.545333,-14.61823 -0.447511,-0.44737 -1.939131,-0.47232 -28.234821,-0.47232 -26.299078,0 -27.787252,0.0249 -28.23482,0.47247 -0.446457,0.44646 -0.47247,1.76243 -0.47247,23.90202 v 23.42955 l 0.624624,0.50579 c 0.602298,0.48771 1.317494,0.50579 20.009789,0.50579 16.728731,0 19.42938,-0.0533 19.707812,-0.38876 z M 47.513034,162.20372 c -0.472082,-0.43752 -0.700092,-0.92074 -0.700092,-1.48373 0,-0.45919 1.432004,-4.84042 3.182233,-9.73607 3.368704,-9.42275 3.717652,-10.0918 5.263507,-10.0918 0.939059,0 2.025674,0.84098 2.252059,1.74298 0.128855,0.51339 -0.660471,3.03456 -3.045523,9.72762 -2.585262,7.2549 -3.370231,9.17794 -3.984834,9.76222 -0.964189,0.9166 -2.032709,0.94497 -2.96735,0.0788 z m -11.337422,-6.17635 c -2.920658,-2.92066 -3.121003,-3.18741 -3.121003,-4.15551 0,-0.97048 0.201357,-1.23587 3.252818,-4.28733 3.54748,-3.54748 4.136542,-3.83598 5.554728,-2.72043 1.5601,1.22717 1.149208,2.65778 -1.51632,5.2794 -0.808716,0.79539 -1.470393,1.55222 -1.470393,1.68185 0,0.12962 0.85725,1.11976 1.905,2.20031 1.613831,1.66435 1.905,2.10377 1.905,2.87498 0,1.3261 -0.952336,2.24773 -2.322617,2.24773 -1.008576,0 -1.234914,-0.1687 -4.187213,-3.121 z m 26.059693,2.52569 c -1.314857,-1.43656 -1.02434,-2.45261 1.427416,-4.99219 l 1.757868,-1.82083 -1.757868,-1.82083 c -2.486125,-2.57518 -2.820564,-3.87135 -1.30624,-5.06252 1.407946,-1.10749 2.002404,-0.81507 5.545307,2.72784 4.340219,4.34022 4.340267,4.33866 -0.257609,8.85186 -2.567651,2.52037 -2.837085,2.71198 -3.813429,2.71198 -0.751644,0 -1.205605,-0.16938 -1.595445,-0.59531 z m 18.208378,26.82009 c 0.476168,-0.58871 0.50523,-1.04403 0.439068,-6.87917 l -0.07085,-6.24873 -1.058333,-0.52161 c -0.78023,-0.38454 -1.61454,-0.52359 -3.175,-0.52917 -1.786662,-0.006 -2.349381,0.10673 -3.609316,0.72547 -1.744231,0.85656 -3.479109,2.63124 -4.281659,4.37987 -0.882333,1.92247 -0.809527,4.99426 0.165431,6.97965 0.407617,0.83006 1.110599,1.8201 1.562184,2.20008 l 0.82106,0.69088 4.34875,-0.0834 c 4.21463,-0.0808 4.364477,-0.10286 4.858668,-0.71385 z M 26.165007,131.37271 c 0.752726,-0.40285 1.069975,-1.61528 0.670966,-2.56424 -0.83002,-1.97404 -3.67678,-1.32454 -3.67678,0.83886 0,1.57884 1.582407,2.48716 3.005814,1.72538 z m 8.62142,-0.39043 c 0.357188,-0.35719 0.649432,-0.95792 0.649432,-1.33495 0,-0.37703 -0.292244,-0.97775 -0.649432,-1.33494 -1.832918,-1.83292 -4.519349,0.81721 -2.744031,2.70695 0.762626,0.81178 1.910694,0.79627 2.744031,-0.0371 z m 8.322348,0.12026 c 1.184953,-1.18495 0.337,-3.43958 -1.293605,-3.43958 -1.180852,0 -1.987228,0.80522 -1.987228,1.98437 0,1.7468 2.070759,2.66528 3.280833,1.45521 z"
         id="path834"
         inkscape:connector-curvature="0" />
      <path
         style="fill:#4e4e4e;fill-opacity:1;stroke-width:0.26458332"
         d="m 19.204992,190.14994 c -0.402439,-0.4447 -0.437882,-3.10771 -0.437882,-32.89962 0,-31.06785 0.02012,-32.43397 0.483854,-32.85365 0.444689,-0.40244 3.107704,-0.43788 32.899615,-0.43788 31.067845,0 32.43397,0.0201 32.853645,0.48386 0.402426,0.44467 0.437882,3.10136 0.437882,32.80833 0,31.9717 -0.0058,32.33025 -0.529166,32.85364 -0.523399,0.5234 -0.881944,0.52917 -32.899616,0.52917 -31.023947,0 -32.388665,-0.0201 -32.808332,-0.48385 z m 44.534551,-4.40283 c 0.257583,-0.31037 0.2241,-0.59048 -0.166042,-1.38907 l -0.488685,-1.00029 -1.972554,-0.0788 c -1.084902,-0.0434 -2.126699,-0.20677 -2.315104,-0.36313 -0.461356,-0.38289 -0.483174,-6.05846 -0.02506,-6.51658 0.192257,-0.19226 1.125419,-0.3175 2.365635,-0.3175 1.126474,0 2.107117,-0.0954 2.179208,-0.21208 0.07209,-0.11665 0.378008,-0.83857 0.679818,-1.60426 l 0.548749,-1.39219 -1.457955,-1.52851 c -0.80187,-0.84068 -1.457949,-1.63433 -1.457949,-1.76365 0,-0.41446 4.338235,-4.61181 4.766603,-4.61181 0.226965,0 0.999024,0.59531 1.715688,1.32291 0.716663,0.72761 1.441193,1.32292 1.610066,1.32292 0.30285,0 2.763205,-1.01493 3.020142,-1.24585 0.07276,-0.0654 0.191823,-1.09175 0.264583,-2.28079 l 0.132292,-2.1619 h 3.307291 3.307292 l 0.06768,1.71979 c 0.08883,2.25735 0.254392,2.91042 0.737833,2.91042 0.350951,0 0.389848,-1.68947 0.325689,-14.14591 -0.06784,-13.17088 -0.105432,-14.1785 -0.545334,-14.61826 -0.447519,-0.44738 -1.940449,-0.47232 -28.267648,-0.47232 H 24.276606 l -0.50579,0.62462 c -0.489379,0.60436 -0.50579,1.37525 -0.50579,23.75838 v 23.13376 l 0.649432,0.64943 0.649432,0.64943 h 19.426503 c 16.765095,0 19.470705,-0.0533 19.74915,-0.38876 z m -15.735976,-23.1892 c -0.832308,-0.47237 -1.191559,-1.06301 -1.179232,-1.93875 0.0063,-0.44513 1.464783,-4.84556 3.241145,-9.77872 3.577074,-9.93395 3.721672,-10.18792 5.599843,-9.83557 1.153501,0.21639 2.098026,1.49443 1.853636,2.50816 -0.482539,2.00155 -6.408099,17.95245 -6.859016,18.46364 -0.638439,0.72378 -1.913601,1.0028 -2.656376,0.58124 z m -11.827955,-6.53054 c -4.229545,-4.22955 -4.229285,-4.05217 -0.01215,-8.30734 2.529054,-2.55186 3.285267,-3.16539 4.05477,-3.28972 1.329211,-0.21475 2.467209,0.75738 2.467209,2.10761 0,0.82272 -0.258462,1.21842 -1.905,2.9165 -1.04775,1.08055 -1.905,2.12336 -1.905,2.31734 0,0.19399 0.845344,1.20373 1.878542,2.24387 1.674112,1.68536 1.878541,2.00177 1.878541,2.90755 0,1.3136 -0.971167,2.22519 -2.370625,2.22519 -0.879713,0 -1.241957,-0.27667 -4.086287,-3.121 z m 26.076811,2.49342 c -0.566941,-0.48766 -0.723421,-0.84599 -0.701844,-1.60718 0.02379,-0.83957 0.296193,-1.25643 1.905482,-2.9161 1.032742,-1.06507 1.877713,-2.08093 1.877713,-2.25747 0,-0.17654 -0.85725,-1.20507 -1.905,-2.28562 -1.646539,-1.69808 -1.905,-2.09378 -1.905,-2.9165 0,-1.19104 1.054523,-2.20621 2.291728,-2.20621 0.713317,0 1.302388,0.46892 4.086286,3.25282 4.340219,4.34022 4.340267,4.33866 -0.257609,8.85186 -2.468128,2.42268 -2.864162,2.71198 -3.712503,2.71198 -0.617832,0 -1.204574,-0.21928 -1.679253,-0.62758 z m 18.191249,26.85236 c 0.476182,-0.58872 0.505241,-1.04398 0.439079,-6.87917 l -0.07085,-6.24873 -1.058333,-0.52917 c -1.515867,-0.75793 -4.827391,-0.73433 -6.528771,0.0465 -1.673002,0.76784 -3.557481,2.55797 -4.396287,4.17618 -0.582044,1.12288 -0.693129,1.68882 -0.703191,3.5825 -0.01355,2.548 0.473877,3.94304 1.975014,5.65274 l 0.874188,0.99564 4.479613,-0.083 c 4.352882,-0.0807 4.49404,-0.10088 4.989541,-0.71348 z m -54.412375,-53.9058 c 0.645936,-0.24786 1.23897,-1.5825 1.045569,-2.35307 -0.558038,-2.2234 -3.917673,-1.76628 -3.917673,0.53305 0,1.51369 1.38434,2.39093 2.872104,1.82002 z m 8.75513,-0.48507 c 0.357188,-0.35719 0.649432,-0.95792 0.649432,-1.33495 0,-0.92028 -1.101829,-1.98437 -2.05475,-1.98437 -1.702747,0 -2.53399,2.08407 -1.338713,3.35638 0.762626,0.81178 1.910694,0.79627 2.744031,-0.0371 z m 8.047329,0.39043 c 1.143483,-0.61197 1.063715,-3.0859 -0.114073,-3.53786 -1.383602,-0.53094 -3.050491,0.45946 -3.050491,1.81248 0,1.41758 1.852478,2.42759 3.164564,1.72538 z"
         id="path832"
         inkscape:connector-curvature="0" />
      <path
         style="fill:#404040;fill-opacity:1;stroke-width:0.26458332"
         d="m 19.296276,190.10462 c -0.523383,-0.52338 -0.529166,-0.88194 -0.529166,-32.80833 0,-31.92639 0.0058,-32.28495 0.529166,-32.80833 0.523384,-0.52339 0.881945,-0.52917 32.808332,-0.52917 31.926388,0 32.284949,0.006 32.808332,0.52917 0.523383,0.52338 0.529166,0.88194 0.529166,32.80833 0,31.92639 -0.0058,32.28495 -0.529166,32.80833 -0.523383,0.52339 -0.881944,0.52917 -32.808332,0.52917 -31.926387,0 -32.284948,-0.006 -32.808332,-0.52917 z m 44.417364,-4.3263 c 0.220742,-0.26598 0.205492,-0.62174 -0.05955,-1.38906 l -0.356293,-1.03151 -2.078329,-0.0782 c -1.143079,-0.043 -2.232794,-0.20644 -2.421593,-0.36313 -0.424376,-0.3522 -0.481436,-5.55295 -0.06937,-6.3229 0.235651,-0.44032 0.568595,-0.51177 2.384586,-0.51177 h 2.110695 l 0.654362,-1.47963 c 0.753894,-1.70469 0.718267,-1.82612 -1.037555,-3.5364 -0.666038,-0.64876 -1.210979,-1.30112 -1.210979,-1.44968 0,-0.43893 4.316362,-4.64679 4.766603,-4.64679 0.226965,0 0.999024,0.59531 1.715688,1.32291 0.716663,0.72761 1.441513,1.32292 1.610778,1.32292 0.169264,0 0.972537,-0.294 1.785051,-0.65333 l 1.477298,-0.65333 0.07698,-2.19094 0.07698,-2.19094 h 3.307291 3.307292 l 0.06768,1.71979 c 0.08855,2.25038 0.25436,2.91042 0.731115,2.91042 0.341133,0 0.391835,-1.81608 0.391835,-14.03495 v -14.03498 l -0.649448,-0.64943 -0.64943,-0.64943 H 52.104608 24.56389 l -0.649432,0.64943 -0.649432,0.64943 v 23.1751 23.17509 l 0.649432,0.64943 0.649432,0.64943 h 19.426503 c 15.995716,0 19.47891,-0.0631 19.723247,-0.35755 z M 48.003567,162.54387 c -0.794997,-0.4723 -1.172851,-1.0665 -1.182212,-1.85909 -0.0046,-0.3919 1.428345,-4.73768 3.184382,-9.65729 3.274814,-9.17451 3.752347,-10.13537 5.03718,-10.13537 0.931399,0 2.023046,0.7537 2.318274,1.60059 0.25923,0.74363 -0.02851,1.70332 -2.986773,9.96146 -1.800503,5.0262 -3.494677,9.35958 -3.76483,9.62974 -0.632817,0.63281 -1.929752,0.86172 -2.606021,0.45996 z m -11.43853,-6.10748 c -4.532125,-4.44866 -4.536746,-4.60837 -0.256791,-8.87618 3.430941,-3.42121 4.249537,-3.8043 5.616549,-2.62844 0.579707,0.49864 0.760647,0.8843 0.760647,1.62126 0,0.84581 -0.238713,1.2073 -1.905,2.88478 -1.04775,1.05479 -1.905,2.09679 -1.905,2.31555 0,0.21876 0.833437,1.2248 1.852083,2.23564 1.707936,1.69485 1.852083,1.92447 1.852083,2.95026 0,1.36378 -0.888915,2.20911 -2.322996,2.20911 -0.821797,0 -1.246792,-0.31221 -3.691575,-2.71198 z m 25.714324,2.10757 c -0.533665,-0.45904 -0.70267,-0.84887 -0.70267,-1.62078 0,-0.90578 0.20443,-1.22219 1.878541,-2.90755 1.033198,-1.04014 1.878542,-2.06415 1.878542,-2.27559 0,-0.21144 -0.84478,-1.23489 -1.877293,-2.27434 -1.628518,-1.63946 -1.881026,-2.02168 -1.905479,-2.88436 -0.03497,-1.23356 0.98782,-2.24963 2.2645,-2.24963 0.713317,0 1.302388,0.46892 4.086286,3.25282 4.340219,4.34022 4.340267,4.33866 -0.257609,8.85186 -2.468128,2.42268 -2.864162,2.71198 -3.712503,2.71198 -0.607598,0 -1.202733,-0.21769 -1.652315,-0.60441 z m 18.015396,26.94248 0.649433,-0.64943 v -6.34014 -6.34015 l -1.256771,-0.4849 c -1.694333,-0.65373 -4.549616,-0.64353 -6.2764,0.0224 -1.664735,0.64202 -3.698047,2.53165 -4.57309,4.24994 -1.452137,2.85151 -0.938398,6.81342 1.188802,9.16798 l 0.924867,1.02372 h 4.346865 c 4.262411,0 4.359482,-0.0126 4.996294,-0.64944 z M 26.463631,131.13663 c 0.849554,-0.68793 0.849554,-2.29067 0,-2.97859 -1.383423,-1.12023 -3.304438,-0.25444 -3.304438,1.48929 0,1.16913 0.804382,1.98438 1.957916,1.98438 0.40432,0 1.010255,-0.22279 1.346522,-0.49508 z m 8.322796,-0.15435 c 0.793668,-0.79367 0.828499,-1.6974 0.101062,-2.62218 -1.146784,-1.4579 -3.42038,-0.6091 -3.42038,1.27693 0,1.82433 2.021117,2.64345 3.319318,1.34525 z m 7.913619,0.48507 c 0.645937,-0.24786 1.23897,-1.5825 1.045569,-2.35307 -0.369597,-1.4726 -2.303718,-1.92516 -3.426991,-0.80189 -0.357188,0.35719 -0.649432,0.95791 -0.649432,1.33494 0,1.34301 1.666334,2.34364 3.030854,1.82002 z"
         id="path830"
         inkscape:connector-curvature="0" />
      <path
         style="fill:#333333;fill-opacity:1;stroke-width:0.26458332"
         d="m 19.296276,190.10462 c -0.523383,-0.52338 -0.529166,-0.88194 -0.529166,-32.80833 0,-31.92639 0.0058,-32.28495 0.529166,-32.80833 0.523384,-0.52339 0.881945,-0.52917 32.808332,-0.52917 31.926388,0 32.284949,0.006 32.808332,0.52917 0.523383,0.52338 0.529166,0.88194 0.529166,32.80833 0,31.92639 -0.0058,32.28495 -0.529166,32.80833 -0.523383,0.52339 -0.881944,0.52917 -32.808332,0.52917 -31.926387,0 -32.284948,-0.006 -32.808332,-0.52917 z m 44.568764,-4.4553 c 0.08493,-0.2676 -0.0277,-0.92245 -0.250304,-1.45521 l -0.40473,-0.96865 h -2.103808 c -1.809181,0 -2.142162,-0.0717 -2.377699,-0.51178 -0.34213,-0.63927 -0.354724,-5.56485 -0.01561,-6.10281 0.176329,-0.27972 0.889685,-0.43592 2.416571,-0.52916 l 2.166387,-0.13229 0.663086,-1.5384 0.663088,-1.53839 -1.496211,-1.51199 c -0.822909,-0.83159 -1.496202,-1.62511 -1.496202,-1.76337 0,-0.42582 4.328038,-4.62806 4.766603,-4.62806 0.226965,0 0.999024,0.59531 1.715688,1.32291 0.716663,0.72761 1.441513,1.32292 1.610778,1.32292 0.169264,0 0.972537,-0.294 1.785051,-0.65333 l 1.477298,-0.65333 0.07698,-2.19094 0.07698,-2.19094 h 3.307291 3.307292 l 0.06768,1.71979 c 0.08705,2.2122 0.232656,2.81675 0.723792,3.00522 0.352758,0.13537 0.399158,-1.49274 0.399158,-14.00576 v -14.15893 l -0.649442,-0.64943 -0.64943,-0.64943 H 52.104608 24.56389 l -0.649432,0.64943 -0.649432,0.64943 v 23.1751 23.17509 l 0.649432,0.64943 0.649432,0.64943 h 19.573362 c 18.769555,0 19.579704,-0.02 19.727788,-0.48655 z M 47.654851,162.191 c -0.573103,-0.48223 -0.841909,-0.94246 -0.841909,-1.44145 0,-0.90297 6.264356,-18.4934 6.807228,-19.11483 1.015283,-1.16218 3.212134,-0.65917 3.740486,0.85646 0.25863,0.74191 -0.03194,1.70738 -3.002843,9.97753 -1.809049,5.03588 -3.502985,9.36995 -3.764299,9.63127 -0.854032,0.85403 -1.990063,0.88922 -2.938663,0.091 z m -11.15453,-5.83853 c -3.01238,-2.9376 -3.62343,-3.86833 -3.323703,-5.06253 0.202462,-0.80668 5.149059,-5.99225 6.280997,-6.58445 1.015318,-0.53118 1.662933,-0.46551 2.498698,0.25339 0.548378,0.47169 0.729129,0.86688 0.729129,1.59415 0,0.84581 -0.238713,1.2073 -1.905,2.88478 -1.04775,1.05479 -1.905,2.08458 -1.905,2.28842 0,0.20384 0.833437,1.23015 1.852083,2.28068 1.671316,1.72364 1.852083,2.01424 1.852083,2.97739 0,1.30797 -0.911162,2.16407 -2.303245,2.16407 -0.797343,0 -1.261054,-0.34334 -3.776042,-2.7959 z M 62.326748,158.6 c -0.555631,-0.43706 -0.69714,-0.77416 -0.69714,-1.66074 0,-1.02579 0.144147,-1.25541 1.852083,-2.95026 1.018646,-1.01084 1.852083,-2.01688 1.852083,-2.23564 0,-0.21876 -0.845344,-1.24877 -1.878542,-2.28891 -1.674111,-1.68537 -1.878541,-2.00177 -1.878541,-2.90754 0,-1.40644 1.060325,-2.34564 2.402279,-2.12787 0.746511,0.12114 1.533482,0.74943 3.922,3.13117 4.284999,4.27284 4.27962,4.44652 -0.274854,8.87618 -2.436574,2.36981 -2.902823,2.71198 -3.695311,2.71198 -0.516874,0 -1.206743,-0.23584 -1.604057,-0.54837 z m 17.968009,26.88644 0.649433,-0.64943 v -6.34014 -6.34015 l -1.256771,-0.4849 c -1.949886,-0.75233 -4.85127,-0.66269 -6.680729,0.2064 -1.753258,0.83289 -3.246979,2.28388 -4.191105,4.0712 -0.605605,1.14646 -0.698812,1.64053 -0.698812,3.70416 0,2.07422 0.09113,2.55182 0.706813,3.70417 0.388749,0.7276 1.017547,1.65034 1.397333,2.05052 l 0.69052,0.7276 h 4.366943 c 4.28373,0 4.379319,-0.0124 5.016375,-0.64943 z M 26.463631,131.13663 c 0.849554,-0.68793 0.849554,-2.29067 0,-2.97859 -1.29468,-1.04837 -3.463188,-0.11584 -3.463188,1.48929 0,1.60513 2.168508,2.53767 3.463188,1.4893 z m 8.423858,-0.20206 c 0.69574,-0.88449 0.69574,-1.68998 0,-2.57447 -0.549155,-0.69814 -1.520313,-0.90201 -2.502121,-0.52525 -0.679879,0.26089 -1.177742,1.65566 -0.878995,2.46251 0.554633,1.49794 2.42656,1.85073 3.381116,0.63721 z m 8.244891,0.20206 c 0.4425,-0.35832 0.611395,-0.76973 0.611395,-1.4893 0,-1.88424 -2.374715,-2.75112 -3.526213,-1.28723 -0.727437,0.92478 -0.692607,1.82851 0.101062,2.62218 0.784281,0.78428 1.956422,0.84858 2.813756,0.15435 z"
         id="path828"
         inkscape:connector-curvature="0" />
    </g>
  </g>
</svg>
